<svg width="11" height="13" viewBox="0 0 11 13" fill="none" xmlns="http://www.w3.org/2000/svg">
<path d="M5.33282 2.23555V1.04233C5.33282 0.742361 4.97285 0.595708 4.76621 0.809021L2.89972 2.66884C2.7664 2.80216 2.7664 3.00881 2.89972 3.14213L4.75954 5.00195C4.97285 5.2086 5.33282 5.06194 5.33282 4.76197V3.56875C7.53927 3.56875 9.33243 5.36191 9.33243 7.56837C9.33243 9.38153 8.11255 10.9147 6.45938 11.4013C6.1794 11.4813 5.99942 11.748 5.99942 12.0346C5.99942 12.4679 6.41271 12.8079 6.83267 12.6812C9.04579 12.0346 10.6656 9.9948 10.6656 7.56837C10.6656 4.62199 8.2792 2.23555 5.33282 2.23555Z" fill="black"/>
<path d="M1.3332 7.56837C1.3332 6.67512 1.62651 5.84853 2.12646 5.17527C2.32644 4.90862 2.29978 4.54199 2.06647 4.30202C1.78649 4.02204 1.30654 4.04871 1.06656 4.36868C0.399961 5.26192 0 6.36848 0 7.56837C0 9.9948 1.61984 12.0346 3.83296 12.6812C4.25292 12.8079 4.66622 12.4679 4.66622 12.0346C4.66622 11.748 4.48623 11.4813 4.20626 11.4013C2.55309 10.9147 1.3332 9.38153 1.3332 7.56837Z" fill="black"/>
<path d="M6.09103 8.06851C6.29434 8.06851 6.381 7.90019 6.38266 7.89686L6.97427 6.82363C7.0126 6.74864 7.00427 6.68364 6.97261 6.63865C6.94261 6.59532 6.88761 6.56865 6.83262 6.56865C6.83095 6.56865 4.36786 6.56865 4.36786 6.56865L4.2562 6.33034C4.22954 6.27201 4.16954 6.23535 4.10622 6.23535H3.83291C3.74125 6.23535 3.66626 6.31034 3.66626 6.402C3.66626 6.49366 3.74125 6.56865 3.83291 6.56865H3.99956L4.5995 7.83353L4.37452 8.24016C4.25287 8.46347 4.41285 8.73511 4.66616 8.73511H6.49932C6.59098 8.73511 6.66597 8.66012 6.66597 8.56846C6.66597 8.4768 6.59098 8.40181 6.49932 8.40181H4.66616L4.84948 8.06851H6.09103Z" fill="black"/>
<path d="M4.66607 9.56836C4.85015 9.56836 4.99937 9.41914 4.99937 9.23506C4.99937 9.05098 4.85015 8.90176 4.66607 8.90176C4.48199 8.90176 4.33277 9.05098 4.33277 9.23506C4.33277 9.41914 4.48199 9.56836 4.66607 9.56836Z" fill="black"/>
<path d="M6.33258 9.56836C6.51665 9.56836 6.66588 9.41914 6.66588 9.23506C6.66588 9.05098 6.51665 8.90176 6.33258 8.90176C6.1485 8.90176 5.99928 9.05098 5.99928 9.23506C5.99928 9.41914 6.1485 9.56836 6.33258 9.56836Z" fill="black"/>
</svg>
